<svg width="15" height="24" viewBox="0 0 15 24" fill="none" xmlns="http://www.w3.org/2000/svg">
<path d="M6.83167 14.0188C2.92508 14.404 -0.0511958 18.0051 0.000667525 22.2838V22.5008C0.000667525 23.3292 0.616281 24.0008 1.37567 24.0008C2.13505 24.0008 2.75067 23.3292 2.75067 22.5008V22.2238C2.70933 19.5967 4.48652 17.3564 6.87567 17.0238C9.39763 16.751 11.6449 18.7601 11.8949 21.5114C11.9097 21.674 11.9172 21.8373 11.9173 22.0008V22.5008C11.9173 23.3292 12.5329 24.0008 13.2923 24.0008C14.0517 24.0008 14.6673 23.3292 14.6673 22.5008V22.0008C14.6629 17.5775 11.3723 13.9957 7.31764 14.0006C7.15552 14.0008 6.99344 14.0069 6.83167 14.0188Z" fill="#FFF7F7"/>
<path d="M7.33398 12C10.3715 12 12.834 9.31369 12.834 6C12.834 2.68631 10.3715 0 7.33398 0C4.29644 0 1.83398 2.68631 1.83398 6C1.83699 9.31233 4.29768 11.9967 7.33398 12ZM7.33398 3C8.85276 3 10.084 4.34316 10.084 6C10.084 7.65684 8.85276 9 7.33398 9C5.81521 9 4.58398 7.65684 4.58398 6C4.58398 4.34316 5.81521 3 7.33398 3Z" fill="#FFF7F7"/>
</svg>
